<svg width="113" height="112" viewBox="0 0 113 112" fill="none" xmlns="http://www.w3.org/2000/svg">
<path d="M37.0377 76.8163C57.0243 76.8163 73.2188 59.6831 73.2188 38.5492C73.2188 17.4152 57.0243 0.281982 37.0377 0.281982C17.0512 0.281982 0.85664 17.4152 0.85664 38.5492C0.85664 46.9418 3.41367 54.704 7.74496 61.0311C7.13615 63.0749 6.23162 64.8796 5.27491 66.4016C4.43996 67.7496 3.58762 68.7933 2.96141 69.5108C2.6483 69.8587 2.38738 70.1413 2.21343 70.3153C2.12646 70.4022 2.05688 70.4675 2.02209 70.4892L1.9873 70.5327C1.03059 71.4241 0.613113 72.9896 0.995798 74.4029C1.37848 75.8162 2.43956 76.8163 3.6398 76.8163C7.43186 76.8163 11.2587 75.5987 14.4419 74.0985C16.0423 73.3375 17.5382 72.4895 18.8428 71.6198C24.183 74.9247 30.3929 76.8163 37.0377 76.8163ZM78.7852 38.5492C78.7852 62.9662 61.5469 81.3605 41.1255 83.5566C45.3524 99.7331 59.3726 111.605 76.002 111.605C82.6468 111.605 88.8567 109.713 94.2143 106.408C95.5189 107.278 96.9975 108.126 98.5978 108.887C101.781 110.387 105.608 111.605 109.4 111.605C110.6 111.605 111.679 110.626 112.044 109.191C112.409 107.756 112.009 106.191 111.035 105.299L111 105.256C110.965 105.212 110.896 105.169 110.809 105.082C110.635 104.908 110.374 104.647 110.061 104.277C109.435 103.56 108.582 102.516 107.747 101.168C106.791 99.6462 105.886 97.8198 105.277 95.7977C109.609 89.4923 112.166 81.7302 112.166 73.3157C112.166 53.1385 97.3975 36.5923 78.6634 35.1573C78.733 36.2662 78.7678 37.3968 78.7678 38.5274L78.7852 38.5492Z" fill="black"/>
</svg>
