<svg width="113" height="112" viewBox="0 0 113 112" fill="none" xmlns="http://www.w3.org/2000/svg">
<path d="M84.4222 10.7185C84.4222 4.95667 80.6824 0.281982 76.073 0.281982H59.3746C54.7651 0.281982 51.0254 4.95667 51.0254 10.7185V21.155H39.8931V5.50023C39.8931 2.60845 38.0319 0.281982 35.7185 0.281982C33.4051 0.281982 31.5439 2.60845 31.5439 5.50023V21.155H20.4116V5.50023C20.4116 2.60845 18.5505 0.281982 16.237 0.281982C13.9236 0.281982 12.0624 2.60845 12.0624 5.50023V21.155H9.27938C4.66992 21.155 0.930176 25.8297 0.930176 31.5915V52.4645V101.168C0.930176 106.93 4.66992 111.605 9.27938 111.605H53.8084H59.3746H76.073H103.904C108.513 111.605 112.253 106.93 112.253 101.168V52.4645C112.253 46.7027 108.513 42.028 103.904 42.028H84.4222V10.7185ZM101.121 80.2952V87.2528C101.121 89.1662 99.8682 90.7317 98.3375 90.7317H92.7714C91.2407 90.7317 89.9883 89.1662 89.9883 87.2528V80.2952C89.9883 78.3818 91.2407 76.8163 92.7714 76.8163H98.3375C99.8682 76.8163 101.121 78.3818 101.121 80.2952ZM42.6762 90.7317H37.11C35.5794 90.7317 34.327 89.1662 34.327 87.2528V80.2952C34.327 78.3818 35.5794 76.8163 37.11 76.8163H42.6762C44.2069 76.8163 45.4592 78.3818 45.4592 80.2952V87.2528C45.4592 89.1662 44.2069 90.7317 42.6762 90.7317ZM23.1947 87.2528C23.1947 89.1662 21.9423 90.7317 20.4116 90.7317H14.8455C13.3148 90.7317 12.0624 89.1662 12.0624 87.2528V80.2952C12.0624 78.3818 13.3148 76.8163 14.8455 76.8163H20.4116C21.9423 76.8163 23.1947 78.3818 23.1947 80.2952V87.2528ZM98.3375 55.9433C99.8682 55.9433 101.121 57.5088 101.121 59.4222V66.3798C101.121 68.2932 99.8682 69.8587 98.3375 69.8587H92.7714C91.2407 69.8587 89.9883 68.2932 89.9883 66.3798V59.4222C89.9883 57.5088 91.2407 55.9433 92.7714 55.9433H98.3375ZM45.4592 38.5492V45.5068C45.4592 47.4202 44.2069 48.9857 42.6762 48.9857H37.11C35.5794 48.9857 34.327 47.4202 34.327 45.5068V38.5492C34.327 36.6358 35.5794 35.0703 37.11 35.0703H42.6762C44.2069 35.0703 45.4592 36.6358 45.4592 38.5492ZM20.4116 35.0703C21.9423 35.0703 23.1947 36.6358 23.1947 38.5492V45.5068C23.1947 47.4202 21.9423 48.9857 20.4116 48.9857H14.8455C13.3148 48.9857 12.0624 47.4202 12.0624 45.5068V38.5492C12.0624 36.6358 13.3148 35.0703 14.8455 35.0703H20.4116ZM45.4592 66.3798C45.4592 68.2932 44.2069 69.8587 42.6762 69.8587H37.11C35.5794 69.8587 34.327 68.2932 34.327 66.3798V59.4222C34.327 57.5088 35.5794 55.9433 37.11 55.9433H42.6762C44.2069 55.9433 45.4592 57.5088 45.4592 59.4222V66.3798ZM20.4116 69.8587H14.8455C13.3148 69.8587 12.0624 68.2932 12.0624 66.3798V59.4222C12.0624 57.5088 13.3148 55.9433 14.8455 55.9433H20.4116C21.9423 55.9433 23.1947 57.5088 23.1947 59.4222V66.3798C23.1947 68.2932 21.9423 69.8587 20.4116 69.8587ZM73.2899 59.4222V66.3798C73.2899 68.2932 72.0375 69.8587 70.5069 69.8587H64.9407C63.41 69.8587 62.1576 68.2932 62.1576 66.3798V59.4222C62.1576 57.5088 63.41 55.9433 64.9407 55.9433H70.5069C72.0375 55.9433 73.2899 57.5088 73.2899 59.4222ZM70.5069 14.1973C72.0375 14.1973 73.2899 15.7628 73.2899 17.6762V24.6338C73.2899 26.5472 72.0375 28.1127 70.5069 28.1127H64.9407C63.41 28.1127 62.1576 26.5472 62.1576 24.6338V17.6762C62.1576 15.7628 63.41 14.1973 64.9407 14.1973H70.5069ZM73.2899 38.5492V45.5068C73.2899 47.4202 72.0375 48.9857 70.5069 48.9857H64.9407C63.41 48.9857 62.1576 47.4202 62.1576 45.5068V38.5492C62.1576 36.6358 63.41 35.0703 64.9407 35.0703H70.5069C72.0375 35.0703 73.2899 36.6358 73.2899 38.5492Z" fill="black"/>
</svg>
