<svg width="113" height="112" viewBox="0 0 113 112" fill="none" xmlns="http://www.w3.org/2000/svg">
<path d="M111.857 36.5124C112.595 38.4044 111.972 40.5139 110.381 41.8622L100.392 50.4305C100.646 52.2355 100.784 54.084 100.784 55.9542C100.784 57.8244 100.646 59.6729 100.392 61.4779L110.381 70.0462C111.972 71.3945 112.595 73.504 111.857 75.396C110.842 77.9839 109.619 80.463 108.212 82.8552L107.128 84.6167C105.606 87.0089 103.898 89.2705 102.03 91.4017C100.669 92.9675 98.4082 93.4894 96.3782 92.8805L83.529 89.0313C80.4379 91.2713 77.0237 93.1415 73.3789 94.555L70.4954 106.973C70.034 108.952 68.4192 110.517 66.2969 110.844C63.1135 111.344 59.8377 111.605 56.4928 111.605C53.1479 111.605 49.8722 111.344 46.6887 110.844C44.5664 110.517 42.9516 108.952 42.4903 106.973L39.6067 94.555C35.9619 93.1415 32.5478 91.2713 29.4566 89.0313L16.6305 92.9023C14.6005 93.5112 12.3398 92.9675 10.9788 91.4235C9.11023 89.2923 7.40317 87.0306 5.88065 84.6384L4.79643 82.8769C3.38926 80.4848 2.16663 78.0056 1.15162 75.4177C0.413427 73.5257 1.03628 71.4163 2.628 70.068L12.6166 61.4997C12.3629 59.6729 12.2245 57.8244 12.2245 55.9542C12.2245 54.084 12.3629 52.2355 12.6166 50.4305L2.628 41.8622C1.03628 40.5139 0.413427 38.4044 1.15162 36.5124C2.16663 33.9245 3.38926 31.4454 4.79643 29.0532L5.88065 27.2917C7.40317 24.8995 9.11023 22.6379 10.9788 20.5067C12.3398 18.9409 14.6005 18.4189 16.6305 19.0279L29.4797 22.8771C32.5708 20.6371 35.985 18.7669 39.6298 17.3533L42.5133 4.93583C42.9747 2.95686 44.5895 1.39108 46.7118 1.06487C49.8952 0.542946 53.171 0.281982 56.5159 0.281982C59.8608 0.281982 63.1365 0.542946 66.32 1.04313C68.4423 1.36933 70.0571 2.93511 70.5184 4.91408L73.402 17.3316C77.0468 18.7452 80.4609 20.6154 83.5521 22.8553L96.4012 19.0061C98.4313 18.3972 100.692 18.9409 102.053 20.4849C103.922 22.6161 105.629 24.8778 107.151 27.27L108.235 29.0315C109.643 31.4236 110.865 33.9028 111.88 36.4907L111.857 36.5124ZM56.5159 73.3518C66.7121 73.3518 74.9706 65.5664 74.9706 55.9542C74.9706 46.342 66.7121 38.5566 56.5159 38.5566C46.3196 38.5566 38.0611 46.342 38.0611 55.9542C38.0611 65.5664 46.3196 73.3518 56.5159 73.3518Z" fill="black"/>
</svg>
