<?xml version="1.0" standalone="no"?>
<!DOCTYPE svg PUBLIC "-//W3C//DTD SVG 20010904//EN"
 "http://www.w3.org/TR/2001/REC-SVG-20010904/DTD/svg10.dtd">
<svg version="1.0" xmlns="http://www.w3.org/2000/svg"
 width="2400.000000pt" height="959.000000pt" viewBox="0 0 2400.000000 959.000000"
 preserveAspectRatio="xMidYMid meet">

<g transform="translate(0.000000,959.000000) scale(0.100000,-0.100000)"
fill="#000000" stroke="none">
<path d="M1000 8900 l0 -300 2140 0 2140 0 0 300 0 300 -2140 0 -2140 0 0
-300z"/>
<path d="M5890 8900 l0 -300 3047 0 3046 0 -19 21 c-10 12 -71 60 -134 108
-304 229 -624 374 -990 448 -79 16 -266 17 -2517 20 l-2433 3 0 -300z"/>
<path d="M13190 8900 l0 -300 1845 0 1844 0 -38 108 c-22 59 -71 193 -109 297
l-69 190 -1737 3 -1736 2 0 -300z"/>
<path d="M19526 9192 c-3 -5 -50 -132 -105 -283 -54 -151 -102 -282 -106 -291
-7 -17 84 -18 1824 -18 l1831 0 0 300 0 300 -1719 0 c-946 0 -1722 -4 -1725
-8z"/>
<path d="M1000 7730 l0 -300 2140 0 2140 0 0 300 0 300 -2140 0 -2140 0 0
-300z"/>
<path d="M5890 7730 l0 -300 3405 0 3405 0 -4 23 c-62 282 -127 469 -192 547
l-26 30 -3294 0 -3294 0 0 -300z"/>
<path d="M13190 7730 l0 -300 2045 0 c1125 0 2045 4 2045 8 0 4 -45 138 -99
297 l-99 290 -1946 3 -1946 2 0 -300z"/>
<path d="M19085 8018 c-8 -22 -195 -582 -195 -585 0 -2 918 -3 2040 -3 l2040
0 0 300 0 300 -1940 0 c-1543 0 -1942 -3 -1945 -12z"/>
<path d="M2230 6560 l0 -300 930 0 930 0 -2 298 -3 297 -927 3 -928 2 0 -300z"/>
<path d="M7120 6560 l0 -300 925 0 925 0 0 300 0 300 -925 0 -925 0 0 -300z"/>
<path d="M10780 6560 l0 -300 929 0 928 0 26 93 c54 193 87 369 87 466 l0 41
-985 0 -985 0 0 -300z"/>
<path d="M14420 6560 l0 -300 1640 0 c902 0 1640 3 1640 8 0 4 -48 139 -106
300 l-107 292 -1533 0 -1534 0 0 -300z"/>
<path d="M18581 6572 c-57 -158 -106 -293 -109 -299 -3 -10 330 -13 1647 -13
l1651 0 0 300 0 300 -1542 0 -1543 0 -104 -288z"/>
<path d="M2230 5385 l0 -305 928 2 927 3 0 300 0 300 -927 3 -928 2 0 -305z"/>
<path d="M7120 5385 l0 -305 2364 0 2364 0 54 42 c84 66 287 275 356 367 60
79 112 168 112 191 0 7 -825 10 -2625 10 l-2625 0 0 -305z"/>
<path d="M14420 5385 l0 -305 925 0 925 0 2 168 3 167 59 -167 58 -168 1698 0
1698 0 58 158 59 157 5 -155 5 -155 928 -3 927 -2 0 305 0 305 -1741 -2 -1742
-3 -91 -252 c-50 -139 -94 -247 -97 -240 -4 7 -46 121 -95 255 l-87 242 -1749
0 -1748 0 0 -305z"/>
<path d="M2230 4215 l0 -305 928 2 927 3 0 300 0 300 -927 3 -928 2 0 -305z"/>
<path d="M7120 4215 l0 -305 2625 0 c1800 0 2625 3 2625 10 0 23 -52 112 -112
191 -69 92 -272 301 -356 367 l-54 42 -2364 0 -2364 0 0 -305z"/>
<path d="M14420 4215 l0 -305 925 0 925 0 0 305 0 305 -925 0 -925 0 0 -305z"/>
<path d="M16617 4513 c-2 -5 46 -141 107 -303 l111 -295 1274 0 1274 0 103
290 c57 160 103 296 103 303 1 9 -302 12 -1483 12 -817 0 -1487 -3 -1489 -7z"/>
<path d="M19915 4507 c-3 -7 -4 -143 -3 -302 l3 -290 928 -3 927 -2 0 305 0
305 -925 0 c-736 0 -927 -3 -930 -13z"/>
<path d="M2230 3040 l0 -300 928 2 927 3 3 298 2 297 -930 0 -930 0 0 -300z"/>
<path d="M7120 3040 l0 -300 925 0 925 0 0 300 0 300 -925 0 -925 0 0 -300z"/>
<path d="M10780 3040 l0 -300 985 0 985 0 0 41 c0 97 -33 273 -87 467 l-26 92
-928 0 -929 0 0 -300z"/>
<path d="M14420 3040 l0 -300 925 0 925 0 0 300 0 300 -925 0 -925 0 0 -300z"/>
<path d="M17044 3318 c3 -13 50 -147 105 -298 l99 -275 854 -3 854 -2 104 287
c57 159 105 294 108 301 3 9 -214 12 -1063 12 l-1067 0 6 -22z"/>
<path d="M19912 3043 l3 -298 928 -3 927 -2 0 300 0 300 -930 0 -930 0 2 -297z"/>
<path d="M1030 1870 l0 -300 2145 0 2145 0 0 300 0 300 -2145 0 -2145 0 0
-300z"/>
<path d="M5890 1870 l0 -300 3294 0 3294 0 28 32 c64 76 118 232 189 546 l5
22 -3405 0 -3405 0 0 -300z"/>
<path d="M13220 1870 l0 -300 1525 0 1525 0 0 300 0 300 -1525 0 -1525 0 0
-300z"/>
<path d="M17460 2163 c0 -5 49 -138 108 -298 l108 -290 435 -3 435 -2 102 294
c56 161 102 296 102 300 0 3 -290 6 -645 6 -355 0 -645 -3 -645 -7z"/>
<path d="M19912 1873 l3 -298 1543 -3 1542 -2 0 300 0 300 -1545 0 -1545 0 2
-297z"/>
<path d="M1030 700 l0 -300 2145 0 2145 0 0 300 0 300 -2145 0 -2145 0 0 -300z"/>
<path d="M5890 700 l0 -300 2359 0 c1574 0 2393 3 2462 10 386 40 765 196
1124 465 61 46 119 92 129 104 l19 21 -3046 0 -3047 0 0 -300z"/>
<path d="M13220 700 l0 -300 1525 0 1525 0 0 300 0 300 -1525 0 -1525 0 0
-300z"/>
<path d="M17882 988 c3 -7 51 -142 108 -300 81 -226 107 -288 120 -288 10 0
23 12 29 28 25 64 201 556 201 563 0 5 -104 9 -231 9 -181 0 -230 -3 -227 -12z"/>
<path d="M19910 700 l0 -300 1545 0 1545 0 0 300 0 300 -1545 0 -1545 0 0
-300z"/>
</g>
</svg>
