<?xml version="1.0" encoding="utf-8"?>
<!-- Generator: Adobe Illustrator 24.1.1, SVG Export Plug-In . SVG Version: 6.00 Build 0)  -->
<svg version="1.1" id="Capa_1" xmlns="http://www.w3.org/2000/svg" xmlns:xlink="http://www.w3.org/1999/xlink" x="0px" y="0px"
	 viewBox="0 0 843.4 271.2" style="enable-background:new 0 0 843.4 271.2;" xml:space="preserve">
<style type="text/css">
	.st0{fill:#21C25E;}
</style>
<g>
	<g>
		<path class="st0" d="M42.5,73.2c0-10.3,0-20.5,0.1-30.8c0-3.1-0.3-2.8,2.8-2.8c13.2,0,26.4-0.1,39.5,0.1
			c11.1,0.2,21.9,2.1,32.1,6.5c18.6,8,29.8,22,33.5,41.8c2.2,11.7,1.8,23.4-1.2,35c-5.3,20.5-18.1,34.1-38,41.1
			c-9.5,3.4-19.4,4.7-29.5,4.7c-12.2,0-24.4,0-36.5,0c-3.1,0-2.8-0.2-2.8,2.9c0,14.6,0,29.2,0,43.8c0,0.5,0,1,0,1.5
			c0,1.9,0,1.9-2,1.9c-11.9,0-23.9,0-35.8,0c-1.8,0-1.9,0-1.9-2c0-2.2,0-4.3,0-6.5c0-44.8,0-89.6,0-134.4C3,72.7,2.6,73,6.1,73
			c11.3,0,22.7,0,34,0C40.9,73,41.8,73.1,42.5,73.2c1.1,1.2,0.8,2.6,0.8,4c0,17.7,0,35.3,0,53c0,0.8,0,1.5,0,2.3
			c-0.1,1.8,0.8,2.5,2.6,2.5c2-0.1,4,0,6,0c8.7,0,17.3,0.1,26,0c5.6-0.1,11.1-0.9,16.5-2.7c10.1-3.5,17.3-12.7,17.9-23.4
			c0.2-3.9,0.4-7.8-0.3-11.7c-1.9-11-8.4-17.9-18.8-21.2c-4.1-1.3-8.4-2-12.8-2c-11.3,0-22.7,0-34,0C45.1,73.9,43.7,74.1,42.5,73.2z
			"/>
		<path class="st0" d="M728.2,271.1c2.1-5.3,4.1-10.3,6-15.2c4.6-11.6,9.2-23.3,13.8-34.9c0.6-1.6,0.7-2.9,0-4.5
			c-17.4-44.2-34.7-88.4-52.1-132.6c-0.3-0.8-0.7-1.5-0.7-2.4c0.9-0.4,1.7-0.3,2.5-0.3c11.8,0,23.5,0,35.3,0c2.9,0,2.4-0.5,3.6,2.4
			c10.6,26.7,21.1,53.5,31.7,80.2c0.3,0.7,0.6,1.5,1.1,2.6c0.5-1.2,0.9-2,1.2-2.8c10.5-26.7,21.1-53.3,31.6-80
			c1.2-3,0.9-2.4,3.5-2.4c11.7,0,23.4,0,35,0c0.8,0,1.6,0,2.4,0c0.3,1.2-0.3,2-0.6,2.8c-16,41-32.1,82-48.1,122.9
			c-7.9,20.3-15.8,40.5-23.8,60.8c-0.3,0.9-0.7,1.7-1,2.6c-0.2,0.6-0.6,1-1.3,0.9c-0.4,0-0.8,0-1.2,0c-12.3,0-24.5,0-36.8,0
			C729.9,271.2,729.2,271.2,728.2,271.1z"/>
		<path class="st0" d="M347.1,129.2c-3.4-3.9-7-7.3-11.3-9.7c-9.2-5.1-19-6.2-29.1-3.7c-8.8,2.2-15.4,7.7-19.3,15.9
			c-6.5,13.7-6.4,27.7,0.8,41.1c5.5,10.3,14.6,15.4,26.3,15.9c5.5,0.2,10.8-0.5,16-2.4c6.3-2.2,11.5-6.1,15.5-11.4
			c0.6-0.7,0.9-1.6,1.8-2.2c0.5,0.3,1,0.6,1.5,0.9c7.9,5.4,15.9,10.8,23.8,16.2c1.8,1.2,1.8,1.3,0.6,3
			c-7.2,11.1-17.2,18.7-29.5,23.4c-8.6,3.3-17.5,4.8-26.6,5.2c-10.1,0.4-20-0.6-29.6-3.9c-23-8-37.1-24.1-42.6-47.7
			c-3.4-14.6-2.8-29.2,1.9-43.4c6.8-20.6,20.5-34.7,41.2-41.4c20.1-6.5,40.1-5.6,59.5,3c10,4.4,18.1,11.2,24.4,20.1
			c1.3,1.8,1.3,1.8-0.5,3c-7.9,5.7-15.8,11.4-23.7,17.1C348,128.7,347.6,128.9,347.1,129.2z"/>
		<path class="st0" d="M215.8,161.8c0,17.9,0,35.8,0,53.8c0,0.6-0.1,1.2,0,1.7c0.2,1.4-0.5,1.7-1.8,1.7c-12.1,0-24.2,0-36.3,0
			c-1.1,0-1.8-0.3-1.6-1.5c0.1-0.5,0-1,0-1.5c0-36.2,0-72.4,0-108.6c0-3.7-0.4-3.1,3.2-3.1c11.1,0,22.2,0,33.3,0c0.5,0,1,0,1.5,0
			c1.1-0.1,1.7,0.3,1.6,1.5c-0.1,0.7,0,1.3,0,2C215.8,125.8,215.8,143.8,215.8,161.8z"/>
		<path class="st0" d="M542.5,84.1c-4.2-17.5-14.9-29.9-31.3-37.3c-10.5-4.7-21.6-6.8-33-7.1c-13.1-0.3-26.2-0.1-39.3-0.1
			c-0.2,0-0.5,0-0.7,0c-1-0.1-1.3,0.4-1.3,1.3c0,0.6,0,1.2,0,1.8c0,9.1,0,18.2,0,27.3c0,3.5,0.2,3-3.1,3c-11.3,0-22.7,0-34,0
			c-2.5,0-2.5,0-2.5,2.4c0,0.5,0,1,0,1.5c0,22.9,0,45.9,0,68.8c0,23.6,0,47.2,0,70.8c0,2.4,0,2.4,2.3,2.4c11.8,0,23.5,0,35.3,0
			c2.2,0,2.2,0,2.2-2.2c0-0.5,0-1,0-1.5c0-14.4,0-28.9,0-43.3c0-0.6,0-1.2,0-1.8c0-1,0.4-1.4,1.3-1.3c0.6,0,1.2,0,1.8,0
			c11.6,0,23.2,0,34.8,0c10,0,19.8-1.4,29.2-4.7c17.8-6.2,30.4-17.8,36.5-35.7C545.5,114,546.1,99.1,542.5,84.1z M505.4,112.2
			c-2.4,11.3-9.3,18.3-20.3,21.5c-4.4,1.3-9,1.8-13.6,1.9c-10.8,0.1-21.5,0-32.3,0c-0.4,0-0.8,0-1.3,0c-0.9,0-1.2-0.5-1.2-1.3
			c0-0.6,0-1.2,0-1.8c0-9.4,0-18.8,0-28.3c0-9.4,0-18.8,0-28.3c0-0.6,0-1.2,0-1.8c0-0.8,0.3-1.3,1.1-1.2c0.4,0,0.8,0,1.2,0
			c10.8,0,21.5,0,32.3,0c5.1,0,10.2,0.6,15,2.2C498.2,79,505.1,87.8,506,100C506.4,104,506.3,108.1,505.4,112.2z"/>
		<path class="st0" d="M685,191.3c0-17.8,0-35.5-0.1-53.3c0-6.3,0.2-12.7-1-19c-2.6-13.1-9.4-23.2-21-29.9c-8.8-5.1-18.4-7.2-28.4-8
			c-8.9-0.7-17.8-0.2-26.7,1c-15,2-28.9,7.3-42.3,14c-1,0.5-1.1,1-0.6,1.9c3.7,8.1,7.4,16.2,11,24.4c0.7,1.5,0.7,1.5,2.2,0.7
			c4-2.1,8-4,12.3-5.6c10.7-4.1,21.7-6.5,33.3-5.3c4.4,0.5,8.7,1.5,12.6,3.7c8.5,4.8,10.6,13,10.2,20.8c0,0.8-0.4,1-1.1,1
			c-0.6,0-1.2,0-1.8,0c-10.8,0-21.5,0-32.3,0c-4.5,0-9,0-13.5,0.5c-6.3,0.7-12.5,2-18.4,4.6c-10.3,4.4-17.9,11.6-21.4,22.4
			c-2.3,6.9-2.7,14.1-1.5,21.3c2.8,16.7,12.5,27.6,28.5,32.9c9,3,18.3,3.2,27.7,2.1c12.2-1.4,22.7-6.2,31.5-14.9
			c0.6-0.6,1.3-1.2,2.2-2.1c0.1,1.1,0.1,1.7,0.1,2.4c0,3.3,0,6.7,0,10c0,2.2,0,2.3,2.1,2.3c11.5,0,23,0,34.5,0c1.9,0,1.9,0,2-1.9
			c0-0.5,0-1,0-1.5C685,207.5,685,199.4,685,191.3z M647.9,176.8c-4.6,8.6-11.9,13.7-21.4,15.9c-5.5,1.3-11.1,1.5-16.6,0.1
			c-1.8-0.4-3.5-1.1-5.1-1.9c-8.7-4.4-10.6-14.1-7.6-21.4c1.3-3.3,3.9-5.3,7.1-6.7c3.2-1.3,6.6-2,10-2c5.4-0.1,10.8,0,16.3,0
			c0,0,0-0.1,0-0.1c5.7,0,11.3,0,17,0c1.9,0,1.9,0,1.9,1.9c0,2.5-0.1,5,0,7.5C649.7,172.6,649,174.7,647.9,176.8z"/>
		<path class="st0" d="M255.4,76.4c0-24.5,0-49,0-73.6c0-0.5,0-1,0-1.5c0.1-1.1-0.5-1.5-1.5-1.4c-0.3,0-0.7,0-1,0
			c-24.8,0-49.5,0-74.3,0c-2.6,0-2.4-0.2-2.4,2.4c0,0.2,0,0.3,0,0.5c0,24.4,0,48.9,0,73.3c0,0.6,0,1.2,0,1.8c-0.1,1,0.4,1.3,1.4,1.3
			c0.6,0,1.2,0,1.8,0c12.2,0,24.4,0,36.5,0c12.3,0,24.5,0,36.8,0C255.8,79.2,255.4,79.5,255.4,76.4z M242.2,63.8
			c0,2.3,0,2.3-2.4,2.3c-8,0-16,0-24,0c-8.1,0-16.2,0-24.3,0c-2.2,0-2.2,0-2.2-2.2c0-16.1,0-32.2,0-48.3c0-2.3,0-2.3,2.3-2.3
			c16.1,0,32.2,0,48.3,0c2.2,0,2.2,0,2.2,2.2C242.2,31.6,242.2,47.7,242.2,63.8z"/>
		<path class="st0" d="M202.5,39.6c0-3.7,0-7.5,0-11.2c0-1.9,0-1.9,1.7-1.9c7.7,0,15.3,0,23,0c1.2,0,1.8,0.3,1.8,1.7
			c-0.1,7.7,0,15.5,0,23.2c0,1.2-0.4,1.6-1.6,1.6c-7.7,0-15.5,0-23.2,0c-1.4,0-1.7-0.6-1.6-1.8C202.5,47.3,202.5,43.5,202.5,39.6z"
			/>
	</g>
</g>
</svg>
